<svg width="44" height="21" viewBox="0 0 44 21" fill="none" xmlns="http://www.w3.org/2000/svg">
<path d="M11.1542 20.275C17.0742 20.275 21.4712 15.84 21.4712 10.377V10.306C21.4712 4.842 17.1112 0.479004 11.2252 0.479004C5.3052 0.479004 0.908203 4.913 0.908203 10.377V10.447C0.908203 15.911 5.2692 20.275 11.1542 20.275ZM11.2252 15.627C8.2472 15.627 6.2262 13.179 6.2262 10.377V10.306C6.2262 7.503 8.0702 5.126 11.1542 5.126C14.1322 5.126 16.1542 7.574 16.1542 10.376V10.448C16.1542 13.25 14.3102 15.627 11.2252 15.627ZM33.1122 20.275C39.0332 20.275 43.4292 15.84 43.4292 10.377V10.306C43.4292 4.842 39.0692 0.479004 33.1832 0.479004C27.2632 0.479004 22.8662 4.913 22.8662 10.377V10.447C22.8662 15.911 27.2272 20.275 33.1122 20.275ZM33.1832 15.627C30.2052 15.627 28.1842 13.179 28.1842 10.377V10.306C28.1842 7.503 30.0282 5.126 33.1122 5.126C36.0912 5.126 38.1122 7.574 38.1122 10.376V10.448C38.1122 13.25 36.2682 15.627 33.1832 15.627Z" fill="white"/>
</svg>
